<mxfile host="app.diagrams.net" agent="Mozilla/5.0 (Windows NT 10.0; Win64; x64) AppleWebKit/537.36 (KHTML, like Gecko) Chrome/134.0.0.0 Safari/537.36" version="26.1.1">
  <diagram name="Page-1" id="c7558073-3199-34d8-9f00-42111426c3f3">
    <mxGraphModel dx="3358" dy="1286" grid="1" gridSize="10" guides="1" tooltips="1" connect="1" arrows="1" fold="1" page="1" pageScale="1" pageWidth="826" pageHeight="1169" background="none" math="0" shadow="0">
      <root>
        <mxCell id="0" />
        <mxCell id="1" parent="0" />
        <mxCell id="reFR-X6VlzYpSkXU1T7T-104" value="&#xa;Plateforme e-Commerce" style="shape=process;whiteSpace=wrap;align=center;verticalAlign=middle;size=0.0475;fontStyle=1;strokeWidth=3;fillColor=#FFCCCC" parent="1" vertex="1">
          <mxGeometry x="-376.5" y="280" width="700" height="480" as="geometry" />
        </mxCell>
        <mxCell id="DFSgWALSGCiAw2XkMpFQ-116" style="edgeStyle=orthogonalEdgeStyle;rounded=0;orthogonalLoop=1;jettySize=auto;html=1;fillColor=#e3c800;strokeColor=#B09500;strokeWidth=3;" parent="1" source="reFR-X6VlzYpSkXU1T7T-97" target="DFSgWALSGCiAw2XkMpFQ-106" edge="1">
          <mxGeometry relative="1" as="geometry" />
        </mxCell>
        <mxCell id="DFSgWALSGCiAw2XkMpFQ-119" style="edgeStyle=orthogonalEdgeStyle;rounded=0;orthogonalLoop=1;jettySize=auto;html=1;entryX=0;entryY=0.5;entryDx=0;entryDy=0;strokeWidth=3;fillColor=#e3c800;strokeColor=#B09500;" parent="1" source="reFR-X6VlzYpSkXU1T7T-97" target="DFSgWALSGCiAw2XkMpFQ-117" edge="1">
          <mxGeometry relative="1" as="geometry" />
        </mxCell>
        <mxCell id="J-moRYrmFZfw3qJP2R3I-113" value="Gestion" style="edgeLabel;html=1;align=center;verticalAlign=middle;resizable=0;points=[];" parent="DFSgWALSGCiAw2XkMpFQ-119" vertex="1" connectable="0">
          <mxGeometry x="-0.1928" y="6" relative="1" as="geometry">
            <mxPoint as="offset" />
          </mxGeometry>
        </mxCell>
        <mxCell id="reFR-X6VlzYpSkXU1T7T-97" value="Communication" style="whiteSpace=wrap;align=center;verticalAlign=middle;fontStyle=1;strokeWidth=3;fillColor=#FFFFCC" parent="1" vertex="1">
          <mxGeometry x="-325" y="180" width="100" height="60" as="geometry" />
        </mxCell>
        <mxCell id="DFSgWALSGCiAw2XkMpFQ-121" style="edgeStyle=orthogonalEdgeStyle;rounded=0;orthogonalLoop=1;jettySize=auto;html=1;entryX=1;entryY=0.5;entryDx=0;entryDy=0;strokeWidth=3;fillColor=#fff2cc;strokeColor=#FFFF00;" parent="1" source="reFR-X6VlzYpSkXU1T7T-98" target="DFSgWALSGCiAw2XkMpFQ-120" edge="1">
          <mxGeometry relative="1" as="geometry" />
        </mxCell>
        <mxCell id="reFR-X6VlzYpSkXU1T7T-98" value="Direction" style="whiteSpace=wrap;align=center;verticalAlign=middle;fontStyle=1;strokeWidth=3;fillColor=#FFFFCC" parent="1" vertex="1">
          <mxGeometry x="350" y="450" width="90" height="60" as="geometry" />
        </mxCell>
        <mxCell id="DFSgWALSGCiAw2XkMpFQ-136" style="edgeStyle=orthogonalEdgeStyle;rounded=0;orthogonalLoop=1;jettySize=auto;html=1;entryX=1;entryY=0.5;entryDx=0;entryDy=0;fillColor=#b0e3e6;strokeColor=#0e8088;strokeWidth=3;" parent="1" source="reFR-X6VlzYpSkXU1T7T-99" target="DFSgWALSGCiAw2XkMpFQ-102" edge="1">
          <mxGeometry relative="1" as="geometry">
            <Array as="points">
              <mxPoint x="240" y="620" />
              <mxPoint x="240" y="620" />
            </Array>
          </mxGeometry>
        </mxCell>
        <mxCell id="J-moRYrmFZfw3qJP2R3I-117" value="Gestion" style="edgeLabel;html=1;align=center;verticalAlign=middle;resizable=0;points=[];" parent="DFSgWALSGCiAw2XkMpFQ-136" vertex="1" connectable="0">
          <mxGeometry x="0.201" y="-1" relative="1" as="geometry">
            <mxPoint as="offset" />
          </mxGeometry>
        </mxCell>
        <mxCell id="J-moRYrmFZfw3qJP2R3I-123" style="edgeStyle=orthogonalEdgeStyle;rounded=0;orthogonalLoop=1;jettySize=auto;html=1;strokeWidth=3;fillColor=#b0e3e6;strokeColor=#0e8088;" parent="1" source="reFR-X6VlzYpSkXU1T7T-99" target="J-moRYrmFZfw3qJP2R3I-120" edge="1">
          <mxGeometry relative="1" as="geometry" />
        </mxCell>
        <mxCell id="J-moRYrmFZfw3qJP2R3I-124" style="edgeStyle=orthogonalEdgeStyle;rounded=0;orthogonalLoop=1;jettySize=auto;html=1;fillColor=#b0e3e6;strokeColor=#0e8088;strokeWidth=3;" parent="1" source="reFR-X6VlzYpSkXU1T7T-99" target="J-moRYrmFZfw3qJP2R3I-122" edge="1">
          <mxGeometry relative="1" as="geometry" />
        </mxCell>
        <mxCell id="J-moRYrmFZfw3qJP2R3I-127" style="edgeStyle=orthogonalEdgeStyle;rounded=0;orthogonalLoop=1;jettySize=auto;html=1;strokeWidth=3;fillColor=#b0e3e6;strokeColor=#0e8088;" parent="1" target="J-moRYrmFZfw3qJP2R3I-126" edge="1">
          <mxGeometry relative="1" as="geometry">
            <mxPoint x="351" y="621" as="sourcePoint" />
            <mxPoint x="135" y="646" as="targetPoint" />
            <Array as="points">
              <mxPoint x="150" y="621" />
              <mxPoint x="150" y="646" />
            </Array>
          </mxGeometry>
        </mxCell>
        <mxCell id="J-moRYrmFZfw3qJP2R3I-131" style="edgeStyle=orthogonalEdgeStyle;rounded=0;orthogonalLoop=1;jettySize=auto;html=1;strokeWidth=3;fillColor=#b0e3e6;strokeColor=#0e8088;" parent="1" source="reFR-X6VlzYpSkXU1T7T-99" target="J-moRYrmFZfw3qJP2R3I-130" edge="1">
          <mxGeometry relative="1" as="geometry">
            <Array as="points">
              <mxPoint x="150" y="620" />
              <mxPoint x="150" y="590" />
            </Array>
          </mxGeometry>
        </mxCell>
        <mxCell id="reFR-X6VlzYpSkXU1T7T-99" value="Département IT" style="whiteSpace=wrap;align=center;verticalAlign=middle;fontStyle=1;strokeWidth=3;fillColor=#FFFFCC" parent="1" vertex="1">
          <mxGeometry x="351" y="590" width="90" height="60" as="geometry" />
        </mxCell>
        <mxCell id="DFSgWALSGCiAw2XkMpFQ-122" style="edgeStyle=orthogonalEdgeStyle;rounded=0;orthogonalLoop=1;jettySize=auto;html=1;strokeWidth=3;fillColor=#d5e8d4;strokeColor=#82b366;gradientColor=#97d077;" parent="1" source="DFSgWALSGCiAw2XkMpFQ-96" target="DFSgWALSGCiAw2XkMpFQ-120" edge="1">
          <mxGeometry relative="1" as="geometry">
            <Array as="points">
              <mxPoint x="204" y="570" />
            </Array>
          </mxGeometry>
        </mxCell>
        <mxCell id="DFSgWALSGCiAw2XkMpFQ-133" style="edgeStyle=orthogonalEdgeStyle;rounded=0;orthogonalLoop=1;jettySize=auto;html=1;entryX=1;entryY=0.5;entryDx=0;entryDy=0;strokeWidth=3;fillColor=#d5e8d4;gradientColor=#97d077;strokeColor=#82b366;" parent="1" source="DFSgWALSGCiAw2XkMpFQ-96" target="DFSgWALSGCiAw2XkMpFQ-131" edge="1">
          <mxGeometry relative="1" as="geometry">
            <Array as="points">
              <mxPoint x="510" y="670" />
            </Array>
          </mxGeometry>
        </mxCell>
        <mxCell id="J-moRYrmFZfw3qJP2R3I-96" style="edgeStyle=orthogonalEdgeStyle;rounded=0;orthogonalLoop=1;jettySize=auto;html=1;entryX=1;entryY=0.5;entryDx=0;entryDy=0;fillColor=#d5e8d4;strokeColor=#82b366;strokeWidth=3;gradientColor=#97d077;" parent="1" source="DFSgWALSGCiAw2XkMpFQ-96" target="DFSgWALSGCiAw2XkMpFQ-107" edge="1">
          <mxGeometry relative="1" as="geometry">
            <Array as="points">
              <mxPoint x="330" y="570" />
              <mxPoint x="330" y="570" />
            </Array>
          </mxGeometry>
        </mxCell>
        <mxCell id="J-moRYrmFZfw3qJP2R3I-119" style="edgeStyle=orthogonalEdgeStyle;rounded=0;orthogonalLoop=1;jettySize=auto;html=1;entryX=1;entryY=0.5;entryDx=0;entryDy=0;strokeWidth=3;fillColor=#d5e8d4;gradientColor=#97d077;strokeColor=#82b366;" parent="1" source="DFSgWALSGCiAw2XkMpFQ-96" target="J-moRYrmFZfw3qJP2R3I-118" edge="1">
          <mxGeometry relative="1" as="geometry">
            <Array as="points">
              <mxPoint x="530" y="720" />
            </Array>
          </mxGeometry>
        </mxCell>
        <mxCell id="DFSgWALSGCiAw2XkMpFQ-96" value="Comptabilité" style="whiteSpace=wrap;align=center;verticalAlign=middle;fontStyle=1;strokeWidth=3;fillColor=#FFFFCC" parent="1" vertex="1">
          <mxGeometry x="485" y="540" width="90" height="60" as="geometry" />
        </mxCell>
        <mxCell id="DFSgWALSGCiAw2XkMpFQ-118" style="edgeStyle=orthogonalEdgeStyle;rounded=0;orthogonalLoop=1;jettySize=auto;html=1;fillColor=#f8cecc;gradientColor=#ea6b66;strokeColor=#b85450;strokeWidth=3;" parent="1" source="DFSgWALSGCiAw2XkMpFQ-97" target="DFSgWALSGCiAw2XkMpFQ-117" edge="1">
          <mxGeometry relative="1" as="geometry" />
        </mxCell>
        <mxCell id="J-moRYrmFZfw3qJP2R3I-112" value="Mise en ligne" style="edgeLabel;html=1;align=center;verticalAlign=middle;resizable=0;points=[];" parent="DFSgWALSGCiAw2XkMpFQ-118" vertex="1" connectable="0">
          <mxGeometry x="-0.4778" y="-5" relative="1" as="geometry">
            <mxPoint as="offset" />
          </mxGeometry>
        </mxCell>
        <mxCell id="J-moRYrmFZfw3qJP2R3I-99" style="edgeStyle=orthogonalEdgeStyle;rounded=0;orthogonalLoop=1;jettySize=auto;html=1;entryX=1;entryY=0.5;entryDx=0;entryDy=0;fillColor=#f8cecc;gradientColor=#ea6b66;strokeColor=#b85450;strokeWidth=3;" parent="1" source="DFSgWALSGCiAw2XkMpFQ-97" target="J-moRYrmFZfw3qJP2R3I-97" edge="1">
          <mxGeometry relative="1" as="geometry">
            <Array as="points">
              <mxPoint x="20" y="210" />
              <mxPoint x="20" y="520" />
            </Array>
          </mxGeometry>
        </mxCell>
        <mxCell id="J-moRYrmFZfw3qJP2R3I-129" style="edgeStyle=orthogonalEdgeStyle;rounded=0;orthogonalLoop=1;jettySize=auto;html=1;fillColor=#f8cecc;gradientColor=#ea6b66;strokeColor=#b85450;strokeWidth=3;" parent="1" source="DFSgWALSGCiAw2XkMpFQ-97" target="J-moRYrmFZfw3qJP2R3I-128" edge="1">
          <mxGeometry relative="1" as="geometry" />
        </mxCell>
        <mxCell id="DFSgWALSGCiAw2XkMpFQ-97" value="Vente/&#xa;Commerce" style="whiteSpace=wrap;align=center;verticalAlign=middle;fontStyle=1;strokeWidth=3;fillColor=#FFFFCC" parent="1" vertex="1">
          <mxGeometry x="-147.5" y="180" width="105" height="60" as="geometry" />
        </mxCell>
        <mxCell id="DFSgWALSGCiAw2XkMpFQ-135" style="edgeStyle=orthogonalEdgeStyle;rounded=0;orthogonalLoop=1;jettySize=auto;html=1;fillColor=#dae8fc;gradientColor=#7ea6e0;strokeColor=#6c8ebf;strokeWidth=3;" parent="1" source="DFSgWALSGCiAw2XkMpFQ-98" target="DFSgWALSGCiAw2XkMpFQ-126" edge="1">
          <mxGeometry relative="1" as="geometry">
            <Array as="points">
              <mxPoint x="390" y="330" />
            </Array>
          </mxGeometry>
        </mxCell>
        <mxCell id="J-moRYrmFZfw3qJP2R3I-98" style="edgeStyle=orthogonalEdgeStyle;rounded=0;orthogonalLoop=1;jettySize=auto;html=1;entryX=1;entryY=0.25;entryDx=0;entryDy=0;strokeWidth=3;fillColor=#dae8fc;gradientColor=#7ea6e0;strokeColor=#6c8ebf;" parent="1" source="DFSgWALSGCiAw2XkMpFQ-98" target="J-moRYrmFZfw3qJP2R3I-97" edge="1">
          <mxGeometry relative="1" as="geometry" />
        </mxCell>
        <mxCell id="DFSgWALSGCiAw2XkMpFQ-98" value="Logistique" style="whiteSpace=wrap;align=center;verticalAlign=middle;fontStyle=1;strokeWidth=3;fillColor=#FFFFCC" parent="1" vertex="1">
          <mxGeometry x="351" y="370" width="90" height="60" as="geometry" />
        </mxCell>
        <mxCell id="DFSgWALSGCiAw2XkMpFQ-137" style="edgeStyle=orthogonalEdgeStyle;rounded=0;orthogonalLoop=1;jettySize=auto;html=1;fillColor=#d0cee2;strokeColor=#56517e;strokeWidth=3;" parent="1" source="DFSgWALSGCiAw2XkMpFQ-100" target="DFSgWALSGCiAw2XkMpFQ-131" edge="1">
          <mxGeometry relative="1" as="geometry" />
        </mxCell>
        <mxCell id="DFSgWALSGCiAw2XkMpFQ-100" value="Banque" style="whiteSpace=wrap;align=center;verticalAlign=middle;fontStyle=1;strokeWidth=3;fillColor=#FFFFCC" parent="1" vertex="1">
          <mxGeometry x="-320" y="780" width="90" height="60" as="geometry" />
        </mxCell>
        <mxCell id="DFSgWALSGCiAw2XkMpFQ-102" value="Authentification" style="rounded=1;whiteSpace=wrap;html=1;" parent="1" vertex="1">
          <mxGeometry x="-320" y="600" width="90" height="40" as="geometry" />
        </mxCell>
        <mxCell id="DFSgWALSGCiAw2XkMpFQ-106" value="Newsletter" style="rounded=1;whiteSpace=wrap;html=1;" parent="1" vertex="1">
          <mxGeometry x="-320" y="450" width="90" height="40" as="geometry" />
        </mxCell>
        <mxCell id="DFSgWALSGCiAw2XkMpFQ-107" value="Achat/Location" style="rounded=1;whiteSpace=wrap;html=1;" parent="1" vertex="1">
          <mxGeometry x="-320" y="550" width="90" height="40" as="geometry" />
        </mxCell>
        <mxCell id="DFSgWALSGCiAw2XkMpFQ-112" style="edgeStyle=orthogonalEdgeStyle;rounded=0;orthogonalLoop=1;jettySize=auto;html=1;strokeWidth=3;fillColor=#0050ef;strokeColor=#001DBC;" parent="1" source="reFR-X6VlzYpSkXU1T7T-96" target="DFSgWALSGCiAw2XkMpFQ-107" edge="1">
          <mxGeometry relative="1" as="geometry" />
        </mxCell>
        <mxCell id="DFSgWALSGCiAw2XkMpFQ-114" style="edgeStyle=orthogonalEdgeStyle;rounded=0;orthogonalLoop=1;jettySize=auto;html=1;entryX=0;entryY=0.5;entryDx=0;entryDy=0;fillColor=#0050ef;strokeColor=#001DBC;strokeWidth=3;" parent="1" source="reFR-X6VlzYpSkXU1T7T-96" target="DFSgWALSGCiAw2XkMpFQ-106" edge="1">
          <mxGeometry relative="1" as="geometry" />
        </mxCell>
        <mxCell id="J-moRYrmFZfw3qJP2R3I-114" value="Abonnement" style="edgeLabel;html=1;align=center;verticalAlign=middle;resizable=0;points=[];" parent="DFSgWALSGCiAw2XkMpFQ-114" vertex="1" connectable="0">
          <mxGeometry x="0.6453" y="-1" relative="1" as="geometry">
            <mxPoint as="offset" />
          </mxGeometry>
        </mxCell>
        <mxCell id="DFSgWALSGCiAw2XkMpFQ-134" style="edgeStyle=orthogonalEdgeStyle;rounded=0;orthogonalLoop=1;jettySize=auto;html=1;entryX=0;entryY=0.5;entryDx=0;entryDy=0;strokeWidth=3;fillColor=#0050ef;strokeColor=#001DBC;" parent="1" source="reFR-X6VlzYpSkXU1T7T-96" target="DFSgWALSGCiAw2XkMpFQ-131" edge="1">
          <mxGeometry relative="1" as="geometry" />
        </mxCell>
        <mxCell id="J-moRYrmFZfw3qJP2R3I-102" value="Paiement en&lt;div&gt;ligne&lt;/div&gt;" style="edgeLabel;html=1;align=center;verticalAlign=middle;resizable=0;points=[];" parent="DFSgWALSGCiAw2XkMpFQ-134" vertex="1" connectable="0">
          <mxGeometry x="0.6535" y="-1" relative="1" as="geometry">
            <mxPoint as="offset" />
          </mxGeometry>
        </mxCell>
        <mxCell id="J-moRYrmFZfw3qJP2R3I-100" style="edgeStyle=orthogonalEdgeStyle;rounded=0;orthogonalLoop=1;jettySize=auto;html=1;strokeWidth=3;fillColor=#0050ef;strokeColor=#001DBC;" parent="1" source="reFR-X6VlzYpSkXU1T7T-96" target="J-moRYrmFZfw3qJP2R3I-97" edge="1">
          <mxGeometry relative="1" as="geometry" />
        </mxCell>
        <mxCell id="J-moRYrmFZfw3qJP2R3I-132" style="edgeStyle=orthogonalEdgeStyle;rounded=0;orthogonalLoop=1;jettySize=auto;html=1;fillColor=#6a00ff;strokeColor=#3700CC;strokeWidth=3;" parent="1" source="reFR-X6VlzYpSkXU1T7T-96" target="DFSgWALSGCiAw2XkMpFQ-102" edge="1">
          <mxGeometry relative="1" as="geometry" />
        </mxCell>
        <mxCell id="reFR-X6VlzYpSkXU1T7T-96" value="Clientèle" style="whiteSpace=wrap;align=center;verticalAlign=middle;fontStyle=1;strokeWidth=3;fillColor=#FFFFCC" parent="1" vertex="1">
          <mxGeometry x="-590" y="540" width="100" height="60" as="geometry" />
        </mxCell>
        <mxCell id="DFSgWALSGCiAw2XkMpFQ-117" value="Mise en ligne&lt;div&gt;d&#39;annonces&lt;/div&gt;" style="rounded=1;whiteSpace=wrap;html=1;" parent="1" vertex="1">
          <mxGeometry x="-140" y="320" width="90" height="40" as="geometry" />
        </mxCell>
        <mxCell id="DFSgWALSGCiAw2XkMpFQ-120" value="Dashboard" style="rounded=1;whiteSpace=wrap;html=1;" parent="1" vertex="1">
          <mxGeometry x="156" y="460" width="90" height="40" as="geometry" />
        </mxCell>
        <mxCell id="DFSgWALSGCiAw2XkMpFQ-126" value="Gestion des stocks" style="rounded=1;whiteSpace=wrap;html=1;" parent="1" vertex="1">
          <mxGeometry x="158.5" y="310" width="90" height="40" as="geometry" />
        </mxCell>
        <mxCell id="DFSgWALSGCiAw2XkMpFQ-131" value="Paiement" style="rounded=1;whiteSpace=wrap;html=1;" parent="1" vertex="1">
          <mxGeometry x="-320" y="650" width="90" height="40" as="geometry" />
        </mxCell>
        <mxCell id="J-moRYrmFZfw3qJP2R3I-97" value="Suivi des commandes" style="rounded=1;whiteSpace=wrap;html=1;" parent="1" vertex="1">
          <mxGeometry x="-320" y="500" width="90" height="40" as="geometry" />
        </mxCell>
        <mxCell id="J-moRYrmFZfw3qJP2R3I-118" value="ERP" style="rounded=1;whiteSpace=wrap;html=1;" parent="1" vertex="1">
          <mxGeometry x="171" y="700" width="90" height="40" as="geometry" />
        </mxCell>
        <mxCell id="J-moRYrmFZfw3qJP2R3I-120" value="Backup" style="rounded=1;whiteSpace=wrap;html=1;" parent="1" vertex="1">
          <mxGeometry x="158.5" y="625" width="90" height="40" as="geometry" />
        </mxCell>
        <mxCell id="J-moRYrmFZfw3qJP2R3I-122" value="Logs" style="rounded=1;whiteSpace=wrap;html=1;" parent="1" vertex="1">
          <mxGeometry x="158.5" y="575" width="90" height="40" as="geometry" />
        </mxCell>
        <mxCell id="J-moRYrmFZfw3qJP2R3I-126" value="Sécurité Réseau" style="rounded=1;whiteSpace=wrap;html=1;" parent="1" vertex="1">
          <mxGeometry x="40" y="625" width="90" height="40" as="geometry" />
        </mxCell>
        <mxCell id="J-moRYrmFZfw3qJP2R3I-128" value="Contrats" style="rounded=1;whiteSpace=wrap;html=1;" parent="1" vertex="1">
          <mxGeometry x="45" y="310" width="90" height="40" as="geometry" />
        </mxCell>
        <mxCell id="J-moRYrmFZfw3qJP2R3I-130" value="Sécurité Système" style="rounded=1;whiteSpace=wrap;html=1;" parent="1" vertex="1">
          <mxGeometry x="40" y="575" width="90" height="40" as="geometry" />
        </mxCell>
      </root>
    </mxGraphModel>
  </diagram>
</mxfile>
